<svg xmlns="http://www.w3.org/2000/svg" viewBox="0 0 247.93 261.39"><defs><style>.cls-1{fill:#fff;fill-rule:evenodd;}</style></defs><g id="Layer_2" data-name="Layer 2"><g id="Layer_1-2" data-name="Layer 1"><path class="cls-1" d="M120.32,173.89c77.4-112,67.69-93.41,70.87-83.23,10.87,33.88-4.25,72.88-37.1,90.46C90.44,215,21.37,150.84,45.62,87.07,46.84,83.72,42,78.86,78,125.72,124.17,185.9,116.87,178.77,120.32,173.89Zm56.75,87.27H58.5A58.77,58.77,0,0,1,0,202.5V83.75A58.77,58.77,0,0,1,58.5,25.09c126.25,0,132.44-3.64,153,11.28-18.23,18.25-29.36,29.33-28.76,28.74C147.34,17.44,74.42,22.82,46.46,75.21c-11.91-9.36-2.11-1.69-18.87-14.92C55.7,96.93,37,70.05,37,113.34c0,107,161.64,107.18,161.64,0,0-56.28-34.16-.3,49.33-113.34L220.79,44.91a58.14,58.14,0,0,1,14.84,38.84v70.91c-37.8-7.79-50.56,21.07-57.91,29-20.31,22-47.25,12.65-56.62,34.42-7.89,18.37,23.29,5.66,57,.65-5.58,3.45-73.67,29.45-59.35-5.21-24.67-4.16-20.12-3.18-45.55-10.82-3.28-1-35.2-22.27-40.61-9.71-6.3,15.8,118.14,75.07,158.46,46.66,28.88-20.49,4.63-7.16,44.25-31.22C229.27,267.88,162.37,261.16,177.07,261.16ZM142.12,105.71C111.31,136.34,120,133.53,107,123.12,45.3,73.61,49.11,79,50.43,76.45c.41,0,3.66-8.5,14.12-18.51a76.65,76.65,0,0,1,109.2,2.74C182,69.46,186.17,61.6,142.12,105.71Z"/></g></g></svg>