<svg xmlns="http://www.w3.org/2000/svg" viewBox="0 0 503.72 139.56"><defs><style>.cls-1,.cls-2{fill:#fff;}.cls-2{fill-rule:evenodd;}</style></defs><g id="Layer_2" data-name="Layer 2"><g id="Layer_1-2" data-name="Layer 1"><path class="cls-1" d="M159.32,18.66a103.44,103.44,0,0,1,17-1.32c8.77,0,15.2,2,19.28,5.71,3.78,3.27,6,8.27,6,14.39s-1.83,11.12-5.3,14.69c-4.7,5-12.35,7.55-21,7.55a30.65,30.65,0,0,1-7.15-.61V86.62h-8.87Zm8.87,33.16a29.78,29.78,0,0,0,7.35.72c10.72,0,17.25-5.21,17.25-14.69,0-9.09-6.43-13.47-16.23-13.47a37.28,37.28,0,0,0-8.37.71Z"/><path class="cls-1" d="M254.31,54.38H227.58V79.17h29.79v7.45H218.7V17.85h37.14V25.3H227.58V47h26.73Z"/><path class="cls-1" d="M332,56.42c-.51-9.6-1.12-21.13-1-29.7h-.31c-2.35,8.06-5.2,16.64-8.67,26.12L309.82,86.21h-6.74L292,53.46c-3.27-9.7-6-18.57-8-26.74h-.2c-.21,8.57-.72,20.1-1.33,30.41l-1.84,29.49h-8.47L277,17.85h11.33L300,51.11c2.86,8.47,5.2,16,6.94,23.16h.31c1.73-6.94,4.18-14.49,7.24-23.16l12.24-33.26h11.33l4.28,68.77h-8.67Z"/><path class="cls-1" d="M370,17.85V86.62h-8.87V17.85Z"/><path class="cls-1" d="M390.62,18.76a93.28,93.28,0,0,1,17-1.42c9.49,0,15.61,1.73,19.9,5.61A17.12,17.12,0,0,1,433,36c0,9.08-5.72,15.1-13,17.55v.3c5.3,1.84,8.47,6.74,10.1,13.88,2.24,9.59,3.88,16.23,5.31,18.88h-9.19c-1.12-1.94-2.65-7.86-4.59-16.43-2-9.49-5.71-13.06-13.77-13.37H399.5v29.8h-8.88Zm8.88,31.33h9.08c9.49,0,15.51-5.2,15.51-13.06,0-8.88-6.43-12.76-15.82-12.86a36.36,36.36,0,0,0-8.77.82Z"/><path class="cls-1" d="M462.25,65,455.1,86.62h-9.18l23.37-68.77H480l23.47,68.77H494L486.63,65Zm22.55-6.94-6.74-19.8c-1.53-4.49-2.55-8.57-3.57-12.55h-.2c-1,4.08-2.15,8.27-3.47,12.45l-6.74,19.9Z"/><path class="cls-1" d="M156.34,120.39a25.27,25.27,0,0,1,4.24-.33,7.07,7.07,0,0,1,4.8,1.42,4.62,4.62,0,0,1,1.5,3.59,5.06,5.06,0,0,1-1.32,3.66,7.12,7.12,0,0,1-5.23,1.88,7.4,7.4,0,0,1-1.78-.16v6.86h-2.21Zm2.21,8.26a7.24,7.24,0,0,0,1.83.18c2.66,0,4.29-1.3,4.29-3.66s-1.6-3.35-4-3.35a9.43,9.43,0,0,0-2.08.17Z"/><path class="cls-1" d="M183.8,129.28h-6.66v6.18h7.42v1.85h-9.63V120.19h9.25V122h-7v5.41h6.66Z"/><path class="cls-1" d="M206.94,129.79c-.13-2.39-.28-5.26-.25-7.39h-.08c-.58,2-1.3,4.14-2.16,6.5l-3,8.31h-1.68L197,129.06c-.81-2.42-1.5-4.63-2-6.66H195c0,2.13-.18,5-.33,7.57l-.46,7.34h-2.11l1.2-17.12h2.82l2.92,8.28c.71,2.11,1.29,4,1.73,5.77h.07c.44-1.73,1-3.61,1.81-5.77l3-8.28h2.83l1.06,17.12h-2.16Z"/><path class="cls-1" d="M220.23,120.19v17.12H218V120.19Z"/><path class="cls-1" d="M229.17,120.19h2.21v15.27h7.31v1.85h-9.52Z"/><path class="cls-1" d="M248.45,120.19v17.12h-2.21V120.19Z"/><path class="cls-1" d="M259.6,120.19v7.16h8.28v-7.16h2.24v17.12h-2.24v-8H259.6v8h-2.21V120.19Z"/><path class="cls-1" d="M281.8,131.93,280,137.31h-2.29l5.82-17.12h2.67l5.84,17.12H289.7l-1.83-5.38Zm5.61-1.73-1.67-4.93c-.38-1.12-.64-2.13-.89-3.12h-.05c-.26,1-.54,2-.87,3.09l-1.67,5Z"/><path class="cls-1" d="M299.66,137.31V120.19h2.41l5.49,8.66a47.71,47.71,0,0,1,3.07,5.57l.05,0c-.2-2.29-.25-4.37-.25-7v-7.16h2.08v17.12h-2.23l-5.44-8.69a54.23,54.23,0,0,1-3.2-5.71l-.08,0c.13,2.16.18,4.22.18,7.07v7.31Z"/><path class="cls-1" d="M334.13,120.19v10.14c0,3.83,1.7,5.46,4,5.46,2.54,0,4.17-1.68,4.17-5.46V120.19h2.23v10c0,5.26-2.77,7.42-6.48,7.42-3.5,0-6.15-2-6.15-7.32V120.19Z"/><path class="cls-1" d="M367.87,129.79c-.13-2.39-.28-5.26-.26-7.39h-.07c-.59,2-1.3,4.14-2.16,6.5l-3,8.31h-1.67l-2.77-8.15c-.82-2.42-1.5-4.63-2-6.66h-.06c-.05,2.13-.17,5-.33,7.57l-.45,7.34H353l1.19-17.12H357l2.92,8.28c.72,2.11,1.3,4,1.73,5.77h.08c.43-1.73,1-3.61,1.8-5.77l3.05-8.28h2.82l1.07,17.12H368.3Z"/><path class="cls-1" d="M381.15,120.19v10.14c0,3.83,1.7,5.46,4,5.46,2.54,0,4.17-1.68,4.17-5.46V120.19h2.23v10c0,5.26-2.77,7.42-6.48,7.42-3.5,0-6.15-2-6.15-7.32V120.19Z"/><path class="cls-1" d="M414.89,129.79c-.13-2.39-.28-5.26-.26-7.39h-.07c-.59,2-1.3,4.14-2.16,6.5l-3,8.31H407.7l-2.77-8.15c-.82-2.42-1.5-4.63-2-6.66h-.06c-.05,2.13-.17,5-.33,7.57l-.45,7.34H400l1.19-17.12H404l2.92,8.28c.72,2.11,1.3,4,1.73,5.77h.08c.43-1.73,1-3.61,1.8-5.77l3-8.28h2.82l1.07,17.12h-2.16Z"/><path class="cls-1" d="M436.43,120.42a22.74,22.74,0,0,1,4.24-.36c2.36,0,3.89.43,4.95,1.4a4.24,4.24,0,0,1,1.35,3.25,4.49,4.49,0,0,1-3.23,4.37v.08c1.32.45,2.11,1.67,2.52,3.45a26.91,26.91,0,0,0,1.32,4.7h-2.29a21.78,21.78,0,0,1-1.14-4.09c-.51-2.36-1.42-3.25-3.43-3.33h-2.08v7.42h-2.21Zm2.21,7.8h2.26c2.36,0,3.86-1.3,3.86-3.25,0-2.22-1.6-3.18-3.94-3.21a9,9,0,0,0-2.18.21Z"/><path class="cls-1" d="M458.07,131.93l-1.78,5.38H454l5.82-17.12h2.67l5.84,17.12H466l-1.83-5.38Zm5.61-1.73L462,125.27c-.38-1.12-.64-2.13-.89-3.12h-.05c-.26,1-.54,2-.87,3.09l-1.67,5Z"/><path class="cls-1" d="M477.73,137.31v-7.26l-5.41-9.86h2.51l2.42,4.72c.66,1.3,1.17,2.34,1.7,3.54H479c.48-1.12,1.07-2.24,1.73-3.54l2.46-4.72h2.52L480,130v7.29Z"/><path class="cls-1" d="M493.45,131.93l-1.77,5.38h-2.29l5.82-17.12h2.67l5.84,17.12h-2.36l-1.83-5.38Zm5.62-1.73-1.68-4.93c-.38-1.12-.63-2.13-.89-3.12h-.05c-.25,1-.53,2-.86,3.09l-1.68,5Z"/><path class="cls-2" d="M64.24,92.84C105.57,33.05,100.38,43,102.08,48.41c5.8,18.08-2.27,38.91-19.8,48.3-34,18.08-70.87-16.17-57.92-50.22C25,44.7,22.41,42.1,41.62,67.13,66.3,99.26,62.4,95.45,64.24,92.84Zm30.3,46.6H31.24A31.38,31.38,0,0,1,0,108.12V44.72A31.38,31.38,0,0,1,31.24,13.4c67.4,0,70.71-2,81.68,6-9.73,9.75-15.68,15.66-15.36,15.34C78.67,9.31,39.74,12.19,24.81,40.16c-6.36-5-1.13-.91-10.08-8,15,19.57,5,5.21,5,28.33,0,57.13,86.3,57.22,86.3,0C106,30.47,87.8,60.35,132.38,0L117.89,24a31.08,31.08,0,0,1,7.92,20.74V82.58c-20.18-4.16-27,11.25-30.92,15.48-10.84,11.73-25.23,6.76-30.23,18.38-4.21,9.81,12.43,3,30.44.35-3,1.84-39.34,15.72-31.69-2.79-13.17-2.22-10.74-1.69-24.32-5.77-1.75-.52-18.8-11.89-21.68-5.19C14,111.48,80.48,143.12,102,128c15.42-10.94,2.47-3.83,23.63-16.67C122.41,143,86.7,139.44,94.54,139.44Zm-18.66-83C59.43,72.8,64.05,71.3,57.12,65.74,24.19,39.3,26.22,42.17,26.93,40.82a39.74,39.74,0,0,1,7.54-9.88,40.92,40.92,0,0,1,58.3,1.46C97.18,37.09,99.4,32.89,75.88,56.44Z"/></g></g></svg>